<?xml version="1.0" standalone="no"?>
<!DOCTYPE svg PUBLIC "-//W3C//DTD SVG 20010904//EN"
 "http://www.w3.org/TR/2001/REC-SVG-20010904/DTD/svg10.dtd">
<svg version="1.0" xmlns="http://www.w3.org/2000/svg"
 width="750.000000pt" height="750.000000pt" viewBox="0 0 750.000000 750.000000"
 preserveAspectRatio="xMidYMid meet">

<g transform="translate(0.000000,750.000000) scale(0.100000,-0.100000)"
fill="#000000" stroke="none">
<path d="M3751 6343 c-6 -21 -24 -91 -41 -156 -17 -65 -42 -162 -56 -215 -14
-53 -34 -126 -43 -162 -15 -59 -21 -67 -54 -83 -46 -21 -47 -41 -4 -64 38 -20
169 -23 205 -4 24 13 29 40 11 58 -8 8 -3 34 19 95 92 254 161 463 154 469 -4
4 -46 28 -94 53 l-87 46 -10 -37z"/>
<path d="M4967 5473 c-3 -5 -15 -59 -28 -120 -13 -62 -27 -113 -31 -113 -5 0
-8 4 -8 8 0 4 -13 23 -29 42 -21 25 -33 32 -40 25 -8 -8 -1 -37 24 -99 l34
-87 -24 -55 c-51 -116 -131 -213 -230 -281 -33 -22 -73 -55 -89 -71 l-28 -31
21 -33 c11 -18 25 -39 30 -47 15 -22 135 51 211 129 75 76 127 161 172 277 34
91 25 85 161 99 60 6 88 17 75 30 -3 2 -32 7 -66 10 -34 4 -62 10 -62 14 0 4
36 31 80 61 43 30 79 60 80 68 0 15 3 16 -102 -33 -43 -19 -78 -34 -78 -33 0
2 9 21 19 43 100 206 93 235 -21 82 -27 -37 -52 -68 -54 -68 -2 0 -1 43 2 95
5 66 4 95 -4 95 -6 0 -13 -3 -15 -7z"/>
<path d="M3014 5156 c-29 -29 -34 -41 -34 -79 0 -73 63 -123 135 -109 44 8 85
58 85 102 0 78 -41 120 -116 120 -28 0 -44 -8 -70 -34z m54 -25 c21 -13 11
-55 -15 -59 -30 -4 -49 31 -27 52 18 18 24 19 42 7z m82 -115 c0 -20 -19 -31
-32 -18 -6 6 -7 15 -4 21 10 16 36 13 36 -3z"/>
<path d="M3702 5177 c-99 -55 -56 -210 58 -210 65 0 110 48 110 119 0 52 -53
104 -106 104 -22 -1 -49 -6 -62 -13z m36 -49 c30 -30 -1 -73 -36 -51 -23 14
-25 29 -7 47 20 19 27 20 43 4z m82 -112 c0 -20 -19 -31 -32 -18 -6 6 -7 15
-4 21 10 16 36 13 36 -3z"/>
<path d="M3046 4751 c-9 -15 13 -112 36 -161 31 -62 107 -136 176 -168 49 -23
70 -27 152 -27 84 0 102 3 158 29 112 52 201 177 205 291 l2 40 -362 3 c-209
1 -364 -2 -367 -7z m294 -224 c31 -3 41 -37 11 -37 -12 0 -21 5 -21 11 0 5 -5
7 -11 4 -18 -12 -79 5 -79 22 0 12 7 14 38 9 20 -4 48 -7 62 -9z"/>
<path d="M2366 4482 c-25 -42 -86 -201 -82 -217 4 -13 63 -53 168 -115 89 -52
165 -96 170 -98 4 -2 8 20 8 50 0 52 -1 54 -44 80 -24 14 -68 32 -99 38 -39 9
-54 17 -50 26 3 8 -4 22 -16 32 l-21 17 28 30 c37 40 62 77 62 92 0 15 -117
76 -124 65z"/>
<path d="M3980 4252 c-35 -23 -90 -81 -90 -95 0 -6 10 3 23 20 12 18 41 44 65
59 23 15 42 28 42 30 0 8 -16 2 -40 -14z"/>
<path d="M4023 4193 c-24 -26 -43 -49 -43 -52 0 -8 71 63 81 82 15 26 8 21
-38 -30z"/>
<path d="M3937 4129 c-10 -6 -25 -8 -33 -5 -8 3 -14 1 -14 -4 0 -14 31 -12 60
5 14 8 21 14 15 14 -5 0 -18 -4 -28 -10z"/>
<path d="M3792 4108 c-20 -20 -13 -32 7 -14 21 19 61 14 61 -6 0 -6 3 -8 6 -5
11 11 -17 37 -40 37 -12 0 -27 -5 -34 -12z"/>
<path d="M3846 4039 c-11 -11 -15 -19 -9 -19 12 0 38 28 32 34 -2 2 -13 -5
-23 -15z"/>
<path d="M3781 4047 c2 -1 13 -9 24 -17 19 -14 19 -14 6 3 -7 9 -18 17 -24 17
-6 0 -8 -1 -6 -3z"/>
<path d="M3258 3737 c-44 -27 -66 -47 -64 -57 3 -8 7 -50 11 -92 l7 -78 -61 0
c-51 0 -62 -3 -72 -21 -8 -16 -8 -28 0 -45 10 -23 15 -24 110 -24 67 0 102 4
109 13 5 6 15 62 21 122 6 61 14 136 17 168 4 31 3 57 -2 57 -5 -1 -39 -20
-76 -43z"/>
<path d="M3600 3753 c0 -51 31 -288 40 -310 9 -22 15 -23 110 -23 98 0 101 1
112 26 20 42 1 59 -71 62 l-62 3 6 57 c3 31 8 73 11 92 4 34 3 36 -65 78 -38
23 -72 42 -75 42 -3 0 -6 -12 -6 -27z"/>
<path d="M1453 3339 c-34 -5 -79 -15 -100 -22 -37 -12 -38 -13 -55 -92 -26
-121 -65 -403 -78 -555 -6 -74 -12 -152 -14 -173 -5 -45 -4 -45 144 -84 68
-17 108 -22 140 -18 117 17 255 85 353 175 l54 49 5 -87 c6 -93 25 -152 69
-218 78 -115 270 -157 413 -89 77 36 139 104 191 206 48 97 55 95 55 -17 0
-34 3 -89 6 -123 l7 -61 112 0 c61 0 137 5 168 11 50 10 56 14 52 33 -18 81
-25 121 -29 191 l-6 80 20 -42 c23 -47 44 -55 145 -55 84 0 99 6 120 52 10 22
20 38 23 36 4 -5 -21 -247 -37 -345 l-8 -53 121 4 c114 5 246 31 246 49 0 4
32 -4 71 -18 103 -36 107 -34 151 72 21 50 39 93 40 98 2 4 40 10 84 14 l81 6
17 -89 c9 -49 19 -117 22 -152 4 -34 10 -64 13 -66 11 -7 164 23 211 41 25 9
66 29 92 44 30 18 73 31 125 39 43 6 99 18 124 26 l46 15 7 105 c4 57 4 146 2
197 -7 115 -2 100 43 -148 l37 -200 54 4 c57 3 218 46 234 61 8 8 -6 193 -21
278 -3 17 -1 32 3 32 5 0 43 -60 84 -133 l74 -133 56 8 c61 10 229 53 238 62
7 8 -15 413 -34 601 -16 164 -41 346 -49 353 -15 16 -310 -60 -337 -86 -3 -4
3 -47 13 -96 11 -49 18 -90 16 -93 -3 -2 -35 35 -72 82 -54 68 -73 85 -94 85
-46 0 -143 -29 -209 -62 -49 -24 -65 -29 -71 -19 -6 8 -43 15 -107 18 -85 4
-107 2 -154 -16 -30 -11 -67 -31 -83 -43 l-27 -23 14 -75 c12 -64 45 -312 61
-460 3 -30 -14 10 -51 120 -54 160 -133 338 -193 431 -27 42 -34 47 -87 57
-31 7 -96 12 -143 12 l-86 0 -24 -92 c-27 -106 -115 -377 -134 -414 -11 -21
-12 17 -9 235 l5 259 -51 26 c-28 14 -86 35 -128 47 l-78 21 -28 -33 c-15 -19
-60 -84 -100 -146 -40 -62 -75 -112 -78 -112 -3 0 -40 60 -83 132 -116 195
-102 182 -180 170 -53 -9 -120 -32 -203 -69 -6 -3 -14 5 -17 17 -6 21 -8 22
-144 16 -150 -6 -213 -19 -213 -44 0 -12 -6 -14 -27 -9 -16 4 -69 9 -120 13
-90 6 -92 5 -116 -21 l-25 -27 -25 43 c-52 88 -160 149 -320 182 -83 17 -120
18 -214 5z m252 -64 c88 -23 139 -49 188 -95 105 -96 122 -239 48 -395 -74
-157 -241 -290 -416 -330 -68 -16 -81 -15 -214 22 l-53 15 7 87 c18 233 51
479 85 638 11 50 13 52 53 61 68 16 236 14 302 -3z m3635 -34 c0 -5 9 -85 20
-178 10 -92 24 -242 30 -333 5 -91 13 -204 16 -252 l5 -87 -43 -11 c-189 -49
-167 -56 -238 73 -34 61 -92 156 -128 212 -56 83 -67 96 -69 75 -2 -14 8 -122
21 -240 20 -180 21 -217 10 -226 -16 -13 -173 -48 -181 -41 -11 12 -111 603
-129 764 l-6 61 73 35 c88 42 167 61 187 45 25 -22 150 -194 200 -276 l50 -83
-5 48 c-7 67 -50 324 -58 344 -5 13 4 21 37 33 101 39 208 58 208 37z m-2369
-133 c29 -46 78 -133 109 -194 l57 -110 32 63 c34 64 132 215 174 266 22 28
24 29 67 17 25 -7 67 -21 94 -33 l49 -21 -7 -250 c-3 -138 -8 -309 -11 -381
l-5 -130 40 80 c63 126 130 305 186 495 l52 175 85 -1 c126 -3 130 -6 212
-169 39 -77 87 -191 108 -252 41 -124 103 -361 113 -433 l6 -47 -50 -21 c-48
-21 -182 -56 -187 -50 -1 2 -7 37 -14 78 -6 41 -19 110 -27 152 l-17 77 -46
-4 c-25 -3 -80 -7 -121 -10 l-75 -6 -34 -91 c-19 -49 -40 -92 -48 -95 -23 -9
-87 14 -142 52 l-51 34 0 -38 c0 -38 -1 -39 -47 -51 -27 -6 -84 -14 -127 -17
l-79 -6 6 59 c7 63 44 429 51 503 l4 45 -18 -25 c-11 -13 -47 -79 -82 -146
l-63 -123 -61 0 c-33 0 -67 6 -76 13 -9 6 -34 55 -57 107 -23 52 -53 115 -67
140 l-25 45 5 -175 c3 -96 10 -210 17 -253 6 -43 8 -81 5 -85 -4 -3 -54 -8
-110 -10 l-103 -4 -6 53 c-13 111 -19 452 -12 611 l7 165 57 28 c46 22 132 49
172 54 4 1 31 -36 60 -81z m-357 26 c13 -35 7 -339 -9 -428 -53 -302 -176
-457 -362 -458 -97 -1 -150 18 -204 72 -67 67 -84 124 -83 275 0 130 15 219
64 375 41 134 43 135 133 133 89 -2 153 -24 142 -50 -19 -51 -56 -229 -71
-345 -26 -209 -8 -339 41 -298 60 50 112 383 96 615 -4 55 -6 102 -4 104 7 9
84 19 164 20 72 1 88 -2 93 -15z m1955 -59 c14 -15 31 -338 31 -590 l0 -224
-38 -11 c-39 -10 -162 -29 -162 -24 0 90 -51 574 -76 718 -10 58 -12 92 -5 99
5 5 34 18 63 29 56 19 169 21 187 3z m-2263 -287 c-9 -109 -26 -211 -38 -223
-6 -6 -7 5 -4 30 3 22 8 65 11 95 9 82 26 180 32 180 3 0 3 -37 -1 -82z"/>
<path d="M1591 3112 c-54 -204 -107 -469 -97 -479 12 -12 94 38 135 82 50 54
76 105 97 189 22 88 13 147 -29 192 -18 19 -47 38 -64 43 -32 9 -33 8 -42 -27z
m86 -83 c23 -72 -24 -217 -92 -279 l-27 -25 7 35 c3 19 20 95 36 168 16 73 29
135 29 138 0 3 8 4 18 2 9 -2 22 -19 29 -39z"/>
<path d="M3885 2698 c-15 -57 -30 -109 -33 -116 -4 -11 8 -13 64 -7 38 4 71 9
73 11 4 3 -69 214 -73 214 -2 0 -15 -46 -31 -102z"/>
<path d="M5831 3245 c-153 -43 -241 -139 -271 -295 -18 -94 -17 -97 44 -111
30 -6 93 -10 145 -7 50 2 91 1 91 -3 0 -15 -75 -106 -153 -187 l-80 -83 6 -82
c8 -113 9 -115 75 -123 135 -17 564 14 593 43 17 17 23 162 10 240 l-12 71
-76 -20 c-41 -10 -79 -18 -83 -16 -5 2 12 30 37 62 60 80 79 120 92 192 26
139 -31 250 -154 305 -64 29 -187 35 -264 14z m256 -68 c83 -42 113 -96 113
-199 0 -100 -43 -174 -192 -334 -39 -42 -55 -65 -43 -61 11 3 67 15 125 26 58
12 114 24 126 27 18 5 22 0 27 -33 8 -48 9 -102 1 -141 -6 -29 -7 -30 -103
-43 -91 -13 -454 -20 -464 -9 -3 3 -8 30 -12 61 l-7 57 77 83 c95 103 157 188
191 264 21 46 25 67 22 112 -3 39 -11 60 -23 69 -25 19 -32 18 -59 -9 -17 -18
-25 -40 -30 -89 -6 -56 -11 -67 -29 -72 -29 -8 -146 -7 -176 1 -22 5 -23 10
-18 54 12 98 72 185 155 225 103 49 234 54 319 11z m-190 -219 c-3 -8 -6 -5
-6 6 -1 11 2 17 5 13 3 -3 4 -12 1 -19z"/>
<path d="M1888 2055 c-31 -17 -41 -41 -37 -93 2 -23 -4 -47 -14 -62 -56 -80
46 -160 143 -112 38 19 40 19 40 1 0 -10 9 -23 19 -29 25 -13 78 -13 86 0 3 5
14 1 25 -10 13 -13 34 -20 59 -20 21 0 52 -5 70 -11 40 -14 78 -5 86 21 8 26
25 26 25 1 0 -28 38 -51 82 -51 39 0 42 3 39 50 -2 24 -1 24 18 -7 32 -52 63
-66 128 -61 36 3 66 0 82 -8 30 -16 60 -18 80 -5 9 6 22 4 37 -6 19 -12 30
-13 58 -3 58 19 62 33 27 90 -17 28 -31 53 -31 56 0 2 16 28 35 57 l35 52 -21
18 c-14 11 -39 18 -68 18 -86 0 -166 8 -207 20 -22 7 -53 9 -69 5 -42 -11 -90
-66 -102 -117 l-9 -44 -8 82 c-5 46 -14 87 -21 93 -17 14 -107 23 -121 13 -6
-4 -25 -45 -43 -91 -19 -45 -35 -81 -38 -79 -2 3 2 41 10 86 12 71 12 84 0 97
-18 17 -90 19 -96 2 -3 -9 -9 -8 -18 5 -18 22 -68 36 -94 27 -13 -5 -26 -2
-38 8 -24 22 -115 26 -149 7z m130 -21 c21 -14 21 -17 7 -45 -13 -24 -19 -28
-35 -19 -39 21 -41 9 -5 -31 31 -35 36 -46 31 -73 -3 -17 -18 -42 -33 -55 -22
-19 -33 -22 -67 -17 -48 8 -76 31 -76 61 0 33 21 46 44 29 39 -28 51 -15 18
19 -39 40 -44 95 -12 127 25 25 95 27 128 4z m127 -26 c6 -5 17 -30 26 -56
l16 -47 8 48 c7 45 9 47 39 47 18 0 35 -2 38 -5 5 -5 1 -38 -23 -178 l-11 -68
-36 3 c-35 3 -38 6 -56 57 -11 30 -21 50 -22 45 -1 -5 -5 -26 -9 -46 -5 -35
-8 -38 -40 -38 -25 0 -35 4 -35 15 0 18 30 214 36 233 4 13 51 7 69 -10z
m-101 -68 c-6 -25 -9 -29 -16 -16 -5 10 -5 24 2 37 16 28 22 19 14 -21z m387
34 l37 -6 11 -112 c7 -61 15 -119 17 -128 4 -15 -1 -18 -28 -18 -37 0 -58 15
-58 41 0 16 -19 29 -41 29 -5 0 -15 -11 -21 -25 -8 -18 -19 -25 -39 -25 -15 0
-30 4 -34 9 -3 6 16 62 42 125 49 122 48 121 114 110z m282 -43 c7 -7 8 -19 1
-38 -9 -25 -14 -28 -46 -25 -28 3 -39 -1 -47 -17 -25 -47 1 -98 46 -86 19 4
25 0 33 -21 14 -36 -3 -54 -51 -54 -53 0 -85 17 -104 55 -29 63 -12 142 41
184 23 18 38 22 72 18 24 -3 49 -10 55 -16z m119 -38 c-4 -41 3 -42 23 -3 12
23 22 30 44 30 60 0 63 -7 26 -63 -19 -29 -35 -56 -35 -61 0 -5 13 -31 30 -57
l30 -49 -31 -16 c-41 -20 -56 -13 -78 38 l-18 43 -6 -43 c-6 -35 -11 -42 -30
-42 -47 0 -50 10 -43 121 10 140 10 141 54 137 35 -3 37 -5 34 -35z m-107
-101 c-5 -26 -9 -32 -16 -21 -4 8 -23 14 -41 14 -30 0 -33 3 -33 30 0 27 3 30
32 30 18 0 38 6 45 13 11 11 14 9 16 -9 2 -12 1 -38 -3 -57z"/>
<path d="M2388 1860 c-7 -24 -3 -38 8 -28 3 4 4 17 2 30 l-3 23 -7 -25z"/>
<path d="M5475 2061 c-56 -9 -65 -17 -65 -56 l0 -34 -24 24 c-54 54 -161 40
-205 -27 l-24 -37 -34 29 c-25 23 -44 30 -74 30 -49 0 -102 -21 -121 -49 -15
-21 -15 -21 -27 5 -11 26 -14 27 -73 20 -33 -3 -69 -6 -78 -6 -10 0 -21 -8
-25 -17 -7 -21 12 -228 25 -260 10 -25 41 -30 85 -13 23 9 26 15 23 47 -2 30
1 40 17 48 10 6 22 21 25 35 6 24 7 23 13 -9 4 -19 22 -48 43 -67 30 -29 43
-34 82 -34 58 0 110 29 125 70 11 29 27 41 27 20 0 -19 65 -50 103 -50 59 0
103 25 126 73 17 33 21 37 21 19 0 -13 5 -32 11 -44 9 -17 17 -19 57 -13 108
16 152 56 152 139 -1 71 -29 128 -73 149 -37 18 -47 19 -112 8z m105 -24 c53
-26 78 -134 45 -197 -16 -31 -56 -49 -120 -53 l-39 -2 -22 115 c-11 63 -18
119 -13 124 20 23 113 31 149 13z m-236 -37 c73 -27 93 -174 31 -227 -32 -28
-108 -32 -144 -7 -30 22 -51 73 -51 127 0 88 79 140 164 107z m-245 -44 c32
-17 51 -54 57 -116 9 -79 -39 -130 -123 -130 -81 0 -140 120 -97 199 31 58
102 78 163 47z m-211 -43 c3 -32 2 -33 -33 -33 -29 0 -36 -3 -33 -17 2 -11 13
-18 28 -18 21 0 25 -5 25 -30 0 -23 -5 -31 -21 -33 -17 -2 -20 -10 -20 -50 l1
-47 -35 0 -35 0 -12 95 c-19 159 -19 158 25 163 20 2 53 4 72 3 32 -1 35 -4
38 -33z m9 -75 c-3 -7 -5 -2 -5 12 0 14 2 19 5 13 2 -7 2 -19 0 -25z"/>
<path d="M5515 1933 c12 -69 15 -75 31 -62 27 22 10 99 -22 99 -12 0 -14 -8
-9 -37z"/>
<path d="M5267 1923 c-22 -21 4 -103 32 -103 16 0 31 26 31 55 0 17 -5 36 -12
43 -13 13 -41 16 -51 5z m41 -45 c-2 -18 -7 -33 -13 -33 -5 0 -11 15 -13 33
-3 24 1 32 13 32 12 0 16 -8 13 -32z"/>
<path d="M5016 1884 c-18 -18 -20 -33 -6 -68 12 -32 55 -36 65 -7 16 51 -28
106 -59 75z m42 -53 c-5 -25 -27 -23 -34 3 -9 36 5 54 23 30 7 -10 12 -25 11
-33z"/>
<path d="M4541 1923 c-8 -14 -12 -16 -22 -5 -16 15 -73 16 -99 2 -10 -6 -21
-6 -24 -1 -7 11 -147 2 -163 -11 -7 -6 -19 -6 -30 0 -10 5 -53 7 -97 4 -75 -5
-78 -6 -88 -33 l-10 -29 -29 25 c-58 48 -145 41 -193 -16 -23 -27 -25 -28 -31
-9 -14 45 -47 54 -218 58 -125 3 -162 0 -168 -10 -5 -7 -9 -72 -9 -145 l0
-132 34 -6 c48 -10 76 8 76 48 0 24 6 35 23 42 17 8 23 20 25 53 6 76 21 44
24 -50 l3 -93 43 -3 c24 -2 49 2 57 8 9 8 15 8 20 0 11 -18 53 -11 82 14 l28
25 22 -21 c49 -46 142 -40 195 12 18 18 28 23 28 14 0 -8 8 -22 19 -33 15 -15
30 -18 97 -14 46 3 83 10 89 18 8 10 13 9 24 -2 10 -11 29 -13 90 -7 42 3 78
11 79 15 2 5 9 6 14 3 20 -12 80 -5 98 11 12 11 20 13 25 6 3 -6 26 -11 50
-11 32 0 47 5 53 18 4 9 3 73 -3 142 l-10 125 -47 3 c-36 2 -49 -1 -57 -15z
m94 -100 c3 -54 7 -109 8 -122 2 -19 -4 -26 -23 -31 -36 -10 -49 -2 -82 49
l-30 46 6 -51 6 -51 -32 -7 c-17 -3 -35 -3 -39 1 -4 5 -11 63 -15 131 l-7 122
37 0 c33 0 40 -5 67 -47 l30 -48 -1 45 c-1 25 -1 48 -1 53 1 4 16 7 35 7 l34
0 7 -97z m-245 62 c14 -38 3 -55 -37 -55 -42 0 -41 -23 1 -28 23 -3 27 -8 24
-30 -2 -19 -10 -28 -25 -30 -13 -2 -23 -10 -23 -17 0 -10 9 -12 35 -8 31 5 35
3 41 -22 9 -37 -2 -44 -78 -52 l-66 -6 -5 29 c-3 16 -7 74 -9 129 l-3 100 65
6 c36 3 66 6 68 7 1 1 7 -9 12 -23z m-183 -15 c10 -20 10 -29 -1 -45 -7 -11
-25 -41 -39 -66 l-27 -46 28 5 c35 5 57 -18 48 -52 -5 -21 -13 -24 -78 -31
-63 -6 -74 -4 -85 11 -20 27 -16 48 22 111 l35 58 -34 3 c-37 3 -52 25 -40 55
4 12 23 17 67 20 88 5 90 4 104 -23z m-677 -15 c0 -33 -2 -35 -35 -35 -24 0
-35 -5 -35 -15 0 -8 9 -15 19 -15 39 0 37 -66 -2 -72 -18 -2 -23 -10 -25 -45
-3 -42 -4 -43 -38 -43 l-34 0 0 130 0 130 75 0 75 0 0 -35z m159 24 c17 -6 36
-19 41 -29 14 -27 12 -73 -4 -96 -13 -17 -12 -23 7 -57 21 -38 21 -39 2 -53
-36 -26 -61 -18 -81 29 l-19 42 -3 -42 c-3 -42 -4 -43 -38 -43 l-34 0 0 123
c0 68 3 127 7 130 10 11 87 8 122 -4z m259 -3 c38 -20 57 -60 57 -122 0 -64
-25 -103 -78 -121 -104 -35 -187 72 -142 184 26 64 100 91 163 59z m471 -123
c0 -13 -3 -23 -8 -23 -10 0 -21 80 -12 95 6 10 18 -33 20 -72z m-349 40 c0 -8
-32 -65 -34 -61 -2 1 -6 19 -10 39 -6 35 -5 36 19 31 14 -2 25 -6 25 -9z m158
-46 c-3 -20 -6 -21 -25 -12 l-21 11 21 35 c20 31 22 32 25 12 2 -13 2 -33 0
-46z m-468 -30 c0 -18 -2 -19 -10 -7 -13 20 -13 43 0 35 6 -3 10 -16 10 -28z"/>
<path d="M3630 1789 c0 -24 23 -21 28 4 2 10 -3 17 -12 17 -10 0 -16 -9 -16
-21z"/>
<path d="M3860 1784 c-18 -47 7 -92 44 -78 20 8 30 58 16 83 -15 29 -48 27
-60 -5z m45 -5 c9 -13 -3 -59 -14 -59 -13 0 -22 30 -16 51 7 21 20 25 30 8z"/>
<path d="M3105 1921 c-39 -17 -57 -49 -61 -103 -1 -29 -6 -69 -9 -88 -5 -27
-2 -41 15 -62 20 -26 79 -51 103 -43 7 2 24 6 39 9 30 7 63 58 54 82 -3 8 1
14 10 14 22 0 38 49 25 77 -6 13 -15 23 -20 23 -4 0 -11 13 -14 30 -10 48 -91
83 -142 61z m99 -32 c15 -12 26 -30 26 -45 0 -21 -5 -24 -34 -24 -22 0 -36 6
-40 17 -5 13 -9 14 -19 4 -22 -22 20 -42 74 -35 30 4 49 2 53 -5 11 -18 -4
-51 -23 -51 -14 0 -17 -6 -13 -28 6 -46 -26 -75 -82 -75 -76 0 -124 66 -81
113 13 14 14 22 4 43 -34 74 68 139 135 86z"/>
<path d="M3122 1733 c4 -22 38 -30 38 -10 0 8 -7 18 -16 21 -23 9 -26 8 -22
-11z"/>
</g>
</svg>
